<svg width="105" height="104" viewBox="0 0 105 104" fill="none" xmlns="http://www.w3.org/2000/svg">
<g clip-path="url(#clip0_50_19)">
<path d="M85.1771 17.1509H37.1584C26.2107 17.1509 17.3359 25.9308 17.3359 36.7613V84.2665C17.3359 95.0971 26.2107 103.877 37.1584 103.877H85.1771C96.1247 103.877 104.999 95.0971 104.999 84.2665V36.7613C104.999 25.9308 96.1247 17.1509 85.1771 17.1509Z" fill="black"/>
<path d="M67.8411 0H19.8224C8.8748 0 0 8.7799 0 19.6105V67.1156C0 77.9462 8.8748 86.7261 19.8224 86.7261H67.8411C78.7887 86.7261 87.6635 77.9462 87.6635 67.1156V19.6105C87.6635 8.7799 78.7887 0 67.8411 0Z" fill="black"/>
<path d="M82.8892 31.3896H38.7957C34.171 31.3896 30.4219 35.0986 30.4219 39.6739V83.2959C30.4219 87.8711 34.171 91.5802 38.7957 91.5802H82.8892C87.5139 91.5802 91.263 87.8711 91.263 83.2959V39.6739C91.263 35.0986 87.5139 31.3896 82.8892 31.3896Z" fill="white"/>
<path d="M100.626 25.017L79.7628 4.37713C78.0255 2.65842 75.2088 2.65842 73.4716 4.37713L70.9736 6.84842C69.2363 8.56713 69.2363 11.3537 70.9735 13.0724L91.8365 33.7123C93.5738 35.431 96.3905 35.431 98.1278 33.7123L100.626 31.241C102.363 29.5223 102.363 26.7357 100.626 25.017Z" fill="black" stroke="black" stroke-width="0.599452" stroke-miterlimit="10"/>
<path d="M33.8641 91.0326L13.0011 70.3928C11.2638 68.674 8.44712 68.674 6.70984 70.3928L4.21183 72.864C2.47454 74.5828 2.47455 77.3693 4.21184 79.088L25.0748 99.7279C26.8121 101.447 29.6288 101.447 31.3661 99.7279L33.8641 97.2566C35.6013 95.5379 35.6013 92.7513 33.8641 91.0326Z" fill="black" stroke="black" stroke-width="0.599452" stroke-miterlimit="10"/>
<path d="M76.2154 56.2425V48.9938C76.2154 46.9227 74.5144 45.3047 72.4864 45.3047H48.6079C46.5144 45.3047 44.8789 46.9874 44.8789 48.9938V74.4938C44.8789 76.5649 46.5798 78.1829 48.6079 78.1829H72.4864C74.5798 78.1829 76.2154 76.5002 76.2154 74.4938V68.4748" fill="white"/>
<path d="M76.2154 56.2425V48.9938C76.2154 46.9227 74.5144 45.3047 72.4864 45.3047H48.6079C46.5144 45.3047 44.8789 46.9874 44.8789 48.9938V74.4938C44.8789 76.5649 46.5798 78.1829 48.6079 78.1829H72.4864C74.5798 78.1829 76.2154 76.5002 76.2154 74.4938V68.4748" stroke="black" stroke-width="9.59123" stroke-miterlimit="10"/>
</g>
<defs>
<clipPath id="clip0_50_19">
<rect width="105" height="103.877" fill="white"/>
</clipPath>
</defs>
</svg>
