<svg width="1600" height="900" viewBox="0 0 1600 900" fill="none" xmlns="http://www.w3.org/2000/svg">
<g clip-path="url(#clip0_27_26)">
<rect width="1600" height="900" fill="#5C8DC6"/>
<g filter="url(#filter0_d_27_26)">
<path d="M1033.5 839.312C1033.3 838.621 1033.02 838.01 1032.66 837.48C1032.3 836.94 1031.86 836.486 1031.34 836.116C1030.83 835.738 1030.24 835.449 1029.58 835.25C1028.92 835.051 1028.2 834.952 1027.4 834.952C1025.92 834.952 1024.61 835.321 1023.48 836.06C1022.37 836.798 1021.5 837.873 1020.87 839.284C1020.25 840.686 1019.93 842.4 1019.93 844.426C1019.93 846.453 1020.24 848.176 1020.86 849.597C1021.47 851.017 1022.34 852.101 1023.47 852.849C1024.6 853.588 1025.93 853.957 1027.46 853.957C1028.85 853.957 1030.04 853.711 1031.03 853.219C1032.02 852.717 1032.78 852.011 1033.3 851.102C1033.83 850.193 1034.09 849.118 1034.09 847.878L1035.34 848.062H1027.84V843.432H1040.02V847.097C1040.02 849.653 1039.48 851.85 1038.4 853.688C1037.32 855.515 1035.83 856.926 1033.94 857.92C1032.04 858.905 1029.88 859.398 1027.43 859.398C1024.71 859.398 1022.31 858.796 1020.25 857.594C1018.18 856.382 1016.57 854.663 1015.42 852.438C1014.27 850.203 1013.7 847.551 1013.7 844.483C1013.7 842.125 1014.04 840.023 1014.72 838.176C1015.41 836.32 1016.38 834.748 1017.62 833.46C1018.86 832.172 1020.3 831.192 1021.95 830.52C1023.6 829.848 1025.38 829.511 1027.3 829.511C1028.95 829.511 1030.49 829.753 1031.91 830.236C1033.33 830.709 1034.59 831.382 1035.69 832.253C1036.79 833.124 1037.7 834.161 1038.4 835.364C1039.1 836.557 1039.55 837.873 1039.75 839.312H1033.5ZM1054.47 859.426C1052.22 859.426 1050.29 858.972 1048.67 858.062C1047.06 857.144 1045.82 855.847 1044.95 854.17C1044.08 852.485 1043.64 850.491 1043.64 848.19C1043.64 845.946 1044.08 843.976 1044.95 842.281C1045.82 840.586 1047.05 839.265 1048.63 838.318C1050.22 837.371 1052.09 836.898 1054.23 836.898C1055.67 836.898 1057.01 837.13 1058.25 837.594C1059.5 838.048 1060.58 838.735 1061.51 839.653C1062.45 840.572 1063.18 841.727 1063.7 843.119C1064.22 844.502 1064.48 846.121 1064.48 847.977V849.639H1046.06V845.889H1058.79C1058.79 845.018 1058.6 844.246 1058.22 843.574C1057.84 842.902 1057.31 842.376 1056.64 841.997C1055.98 841.609 1055.21 841.415 1054.33 841.415C1053.41 841.415 1052.59 841.628 1051.88 842.054C1051.18 842.471 1050.63 843.034 1050.23 843.744C1049.84 844.445 1049.63 845.226 1049.62 846.088V849.653C1049.62 850.733 1049.82 851.666 1050.22 852.452C1050.63 853.238 1051.2 853.844 1051.94 854.27C1052.68 854.696 1053.55 854.909 1054.57 854.909C1055.24 854.909 1055.85 854.814 1056.41 854.625C1056.97 854.436 1057.45 854.152 1057.85 853.773C1058.25 853.394 1058.55 852.93 1058.76 852.381L1064.35 852.75C1064.07 854.095 1063.49 855.269 1062.61 856.273C1061.74 857.267 1060.61 858.044 1059.23 858.602C1057.85 859.152 1056.27 859.426 1054.47 859.426ZM1074.48 846.386V859H1068.43V837.182H1074.2V841.031H1074.45C1074.94 839.762 1075.75 838.759 1076.88 838.02C1078.02 837.272 1079.4 836.898 1081.02 836.898C1082.53 836.898 1083.85 837.229 1084.98 837.892C1086.11 838.555 1086.98 839.502 1087.61 840.733C1088.23 841.955 1088.54 843.413 1088.54 845.108V859H1082.49V846.188C1082.5 844.852 1082.16 843.811 1081.47 843.062C1080.78 842.305 1079.83 841.926 1078.62 841.926C1077.8 841.926 1077.08 842.101 1076.46 842.452C1075.84 842.802 1075.36 843.313 1075.01 843.986C1074.67 844.649 1074.49 845.449 1074.48 846.386ZM1103.26 859.426C1101.01 859.426 1099.08 858.972 1097.46 858.062C1095.85 857.144 1094.61 855.847 1093.74 854.17C1092.87 852.485 1092.43 850.491 1092.43 848.19C1092.43 845.946 1092.87 843.976 1093.74 842.281C1094.61 840.586 1095.84 839.265 1097.42 838.318C1099.01 837.371 1100.87 836.898 1103.01 836.898C1104.45 836.898 1105.79 837.13 1107.03 837.594C1108.28 838.048 1109.37 838.735 1110.3 839.653C1111.24 840.572 1111.97 841.727 1112.49 843.119C1113.01 844.502 1113.27 846.121 1113.27 847.977V849.639H1094.85V845.889H1107.57C1107.57 845.018 1107.39 844.246 1107.01 843.574C1106.63 842.902 1106.1 842.376 1105.43 841.997C1104.77 841.609 1104 841.415 1103.11 841.415C1102.2 841.415 1101.38 841.628 1100.67 842.054C1099.97 842.471 1099.42 843.034 1099.02 843.744C1098.63 844.445 1098.42 845.226 1098.41 846.088V849.653C1098.41 850.733 1098.61 851.666 1099.01 852.452C1099.42 853.238 1099.99 853.844 1100.73 854.27C1101.47 854.696 1102.34 854.909 1103.36 854.909C1104.03 854.909 1104.64 854.814 1105.2 854.625C1105.76 854.436 1106.24 854.152 1106.64 853.773C1107.03 853.394 1107.34 852.93 1107.55 852.381L1113.14 852.75C1112.86 854.095 1112.28 855.269 1111.4 856.273C1110.52 857.267 1109.4 858.044 1108.01 858.602C1106.64 859.152 1105.06 859.426 1103.26 859.426ZM1117.22 859V837.182H1123.09V840.989H1123.31C1123.71 839.634 1124.38 838.612 1125.32 837.92C1126.25 837.22 1127.33 836.869 1128.55 836.869C1128.86 836.869 1129.18 836.888 1129.53 836.926C1129.89 836.964 1130.19 837.016 1130.46 837.082V842.452C1130.17 842.366 1129.78 842.291 1129.28 842.224C1128.78 842.158 1128.32 842.125 1127.9 842.125C1127.01 842.125 1126.22 842.319 1125.51 842.707C1124.82 843.086 1124.27 843.616 1123.87 844.298C1123.47 844.98 1123.27 845.766 1123.27 846.656V859H1117.22ZM1139.18 859.412C1137.79 859.412 1136.55 859.17 1135.46 858.688C1134.37 858.195 1133.51 857.471 1132.88 856.514C1132.25 855.548 1131.94 854.346 1131.94 852.906C1131.94 851.694 1132.16 850.676 1132.61 849.852C1133.05 849.028 1133.66 848.366 1134.42 847.864C1135.19 847.362 1136.06 846.983 1137.04 846.727C1138.02 846.472 1139.06 846.292 1140.13 846.188C1141.4 846.055 1142.43 845.932 1143.2 845.818C1143.98 845.695 1144.54 845.515 1144.89 845.278C1145.24 845.042 1145.42 844.691 1145.42 844.227V844.142C1145.42 843.242 1145.13 842.546 1144.57 842.054C1144.01 841.562 1143.21 841.315 1142.18 841.315C1141.09 841.315 1140.22 841.557 1139.58 842.04C1138.94 842.513 1138.51 843.11 1138.3 843.83L1132.71 843.375C1132.99 842.049 1133.55 840.903 1134.38 839.938C1135.22 838.962 1136.29 838.214 1137.61 837.693C1138.93 837.163 1140.47 836.898 1142.21 836.898C1143.42 836.898 1144.58 837.04 1145.69 837.324C1146.81 837.608 1147.8 838.048 1148.66 838.645C1149.53 839.241 1150.22 840.009 1150.72 840.946C1151.22 841.874 1151.47 842.987 1151.47 844.284V859H1145.73V855.974H1145.56C1145.21 856.656 1144.74 857.258 1144.15 857.778C1143.57 858.29 1142.86 858.692 1142.04 858.986C1141.21 859.27 1140.26 859.412 1139.18 859.412ZM1140.92 855.236C1141.81 855.236 1142.59 855.061 1143.27 854.71C1143.96 854.35 1144.49 853.867 1144.88 853.261C1145.27 852.655 1145.46 851.969 1145.46 851.202V848.886C1145.27 849.009 1145.01 849.123 1144.68 849.227C1144.36 849.322 1143.99 849.412 1143.59 849.497C1143.18 849.573 1142.77 849.644 1142.37 849.71C1141.96 849.767 1141.59 849.819 1141.26 849.866C1140.55 849.971 1139.93 850.136 1139.4 850.364C1138.87 850.591 1138.45 850.899 1138.16 851.287C1137.87 851.666 1137.72 852.139 1137.72 852.707C1137.72 853.531 1138.02 854.161 1138.62 854.597C1139.22 855.023 1139.99 855.236 1140.92 855.236ZM1167.77 837.182V841.727H1154.63V837.182H1167.77ZM1157.61 831.955H1163.66V852.295C1163.66 852.854 1163.75 853.29 1163.92 853.602C1164.09 853.905 1164.33 854.118 1164.63 854.241C1164.94 854.365 1165.3 854.426 1165.71 854.426C1165.99 854.426 1166.28 854.402 1166.56 854.355C1166.85 854.298 1167.06 854.256 1167.22 854.227L1168.17 858.73C1167.86 858.825 1167.44 858.934 1166.89 859.057C1166.34 859.189 1165.67 859.27 1164.89 859.298C1163.43 859.355 1162.15 859.161 1161.05 858.716C1159.96 858.271 1159.11 857.58 1158.51 856.642C1157.9 855.705 1157.6 854.521 1157.61 853.091V831.955ZM1181.42 859.426C1179.18 859.426 1177.24 858.972 1175.62 858.062C1174.02 857.144 1172.77 855.847 1171.9 854.17C1171.03 852.485 1170.6 850.491 1170.6 848.19C1170.6 845.946 1171.03 843.976 1171.9 842.281C1172.77 840.586 1174 839.265 1175.58 838.318C1177.17 837.371 1179.04 836.898 1181.18 836.898C1182.62 836.898 1183.96 837.13 1185.2 837.594C1186.45 838.048 1187.54 838.735 1188.47 839.653C1189.4 840.572 1190.13 841.727 1190.65 843.119C1191.17 844.502 1191.43 846.121 1191.43 847.977V849.639H1173.01V845.889H1185.74C1185.74 845.018 1185.55 844.246 1185.17 843.574C1184.79 842.902 1184.27 842.376 1183.59 841.997C1182.93 841.609 1182.16 841.415 1181.28 841.415C1180.36 841.415 1179.55 841.628 1178.84 842.054C1178.13 842.471 1177.59 843.034 1177.19 843.744C1176.79 844.445 1176.59 845.226 1176.58 846.088V849.653C1176.58 850.733 1176.78 851.666 1177.17 852.452C1177.58 853.238 1178.15 853.844 1178.89 854.27C1179.63 854.696 1180.51 854.909 1181.52 854.909C1182.19 854.909 1182.81 854.814 1183.37 854.625C1183.93 854.436 1184.4 854.152 1184.8 853.773C1185.2 853.394 1185.5 852.93 1185.71 852.381L1191.31 852.75C1191.02 854.095 1190.44 855.269 1189.56 856.273C1188.69 857.267 1187.56 858.044 1186.18 858.602C1184.81 859.152 1183.22 859.426 1181.42 859.426ZM1203.42 859.355C1201.77 859.355 1200.27 858.929 1198.92 858.077C1197.59 857.215 1196.52 855.951 1195.74 854.284C1194.96 852.608 1194.57 850.553 1194.57 848.119C1194.57 845.619 1194.98 843.541 1195.78 841.884C1196.59 840.217 1197.66 838.972 1198.99 838.148C1200.34 837.314 1201.81 836.898 1203.41 836.898C1204.63 836.898 1205.65 837.106 1206.46 837.523C1207.29 837.93 1207.95 838.441 1208.45 839.057C1208.96 839.663 1209.35 840.259 1209.62 840.847H1209.8V829.909H1215.84V859H1209.87V855.506H1209.62C1209.33 856.112 1208.93 856.713 1208.41 857.31C1207.9 857.897 1207.23 858.384 1206.41 858.773C1205.59 859.161 1204.6 859.355 1203.42 859.355ZM1205.34 854.54C1206.32 854.54 1207.14 854.275 1207.81 853.744C1208.49 853.205 1209.02 852.452 1209.38 851.486C1209.74 850.52 1209.93 849.388 1209.93 848.091C1209.93 846.794 1209.75 845.667 1209.39 844.71C1209.03 843.754 1208.51 843.015 1207.83 842.494C1207.14 841.973 1206.32 841.713 1205.34 841.713C1204.35 841.713 1203.51 841.983 1202.83 842.523C1202.14 843.062 1201.63 843.811 1201.28 844.767C1200.93 845.723 1200.75 846.831 1200.75 848.091C1200.75 849.36 1200.93 850.482 1201.28 851.457C1201.64 852.423 1202.15 853.181 1202.83 853.73C1203.51 854.27 1204.35 854.54 1205.34 854.54ZM1230.18 859V829.909H1236.24V840.847H1236.42C1236.69 840.259 1237.07 839.663 1237.57 839.057C1238.08 838.441 1238.75 837.93 1239.56 837.523C1240.38 837.106 1241.41 836.898 1242.63 836.898C1244.22 836.898 1245.69 837.314 1247.03 838.148C1248.38 838.972 1249.45 840.217 1250.26 841.884C1251.06 843.541 1251.46 845.619 1251.46 848.119C1251.46 850.553 1251.07 852.608 1250.28 854.284C1249.51 855.951 1248.45 857.215 1247.1 858.077C1245.77 858.929 1244.27 859.355 1242.61 859.355C1241.44 859.355 1240.44 859.161 1239.62 858.773C1238.8 858.384 1238.13 857.897 1237.61 857.31C1237.09 856.713 1236.7 856.112 1236.42 855.506H1236.15V859H1230.18ZM1236.11 848.091C1236.11 849.388 1236.29 850.52 1236.65 851.486C1237.01 852.452 1237.53 853.205 1238.21 853.744C1238.89 854.275 1239.72 854.54 1240.7 854.54C1241.68 854.54 1242.51 854.27 1243.2 853.73C1243.88 853.181 1244.39 852.423 1244.74 851.457C1245.1 850.482 1245.28 849.36 1245.28 848.091C1245.28 846.831 1245.11 845.723 1244.76 844.767C1244.41 843.811 1243.89 843.062 1243.21 842.523C1242.53 841.983 1241.69 841.713 1240.7 841.713C1239.71 841.713 1238.88 841.973 1238.2 842.494C1237.52 843.015 1237.01 843.754 1236.65 844.71C1236.29 845.667 1236.11 846.794 1236.11 848.091ZM1258.53 867.182C1257.77 867.182 1257.05 867.12 1256.37 866.997C1255.71 866.884 1255.16 866.737 1254.73 866.557L1256.09 862.04C1256.8 862.258 1257.44 862.376 1258.01 862.395C1258.59 862.414 1259.08 862.281 1259.5 861.997C1259.93 861.713 1260.27 861.23 1260.54 860.548L1260.89 859.625L1253.06 837.182H1259.43L1263.95 853.205H1264.17L1268.73 837.182H1275.14L1266.66 861.358C1266.25 862.532 1265.7 863.555 1265 864.426C1264.31 865.307 1263.43 865.984 1262.37 866.457C1261.31 866.94 1260.03 867.182 1258.53 867.182ZM1313.27 840.094H1307.05C1306.94 839.289 1306.71 838.574 1306.36 837.949C1306.01 837.314 1305.56 836.775 1305.01 836.33C1304.46 835.884 1303.82 835.544 1303.1 835.307C1302.39 835.07 1301.62 834.952 1300.79 834.952C1299.28 834.952 1297.97 835.326 1296.85 836.074C1295.74 836.812 1294.87 837.892 1294.25 839.312C1293.64 840.723 1293.33 842.437 1293.33 844.455C1293.33 846.528 1293.64 848.271 1294.25 849.682C1294.88 851.093 1295.75 852.158 1296.87 852.878C1297.99 853.598 1299.28 853.957 1300.75 853.957C1301.57 853.957 1302.33 853.848 1303.03 853.631C1303.74 853.413 1304.37 853.096 1304.92 852.679C1305.47 852.253 1305.93 851.737 1306.29 851.131C1306.65 850.525 1306.91 849.833 1307.05 849.057L1313.27 849.085C1313.11 850.42 1312.71 851.708 1312.07 852.949C1311.43 854.18 1310.58 855.283 1309.5 856.259C1308.43 857.224 1307.15 857.991 1305.66 858.56C1304.18 859.118 1302.51 859.398 1300.65 859.398C1298.05 859.398 1295.73 858.811 1293.69 857.636C1291.65 856.462 1290.04 854.762 1288.86 852.537C1287.68 850.312 1287.1 847.617 1287.1 844.455C1287.1 841.282 1287.69 838.583 1288.88 836.358C1290.08 834.133 1291.7 832.437 1293.74 831.273C1295.79 830.098 1298.09 829.511 1300.65 829.511C1302.33 829.511 1303.89 829.748 1305.33 830.222C1306.78 830.695 1308.07 831.386 1309.18 832.295C1310.3 833.195 1311.21 834.298 1311.91 835.605C1312.62 836.912 1313.08 838.408 1313.27 840.094ZM1327.43 859.426C1325.22 859.426 1323.31 858.957 1321.7 858.02C1320.1 857.073 1318.87 855.757 1318 854.071C1317.13 852.376 1316.69 850.411 1316.69 848.176C1316.69 845.922 1317.13 843.953 1318 842.267C1318.87 840.572 1320.1 839.256 1321.7 838.318C1323.31 837.371 1325.22 836.898 1327.43 836.898C1329.64 836.898 1331.54 837.371 1333.14 838.318C1334.75 839.256 1335.99 840.572 1336.86 842.267C1337.73 843.953 1338.17 845.922 1338.17 848.176C1338.17 850.411 1337.73 852.376 1336.86 854.071C1335.99 855.757 1334.75 857.073 1333.14 858.02C1331.54 858.957 1329.64 859.426 1327.43 859.426ZM1327.46 854.739C1328.46 854.739 1329.3 854.455 1329.97 853.886C1330.64 853.309 1331.15 852.523 1331.49 851.528C1331.84 850.534 1332.02 849.402 1332.02 848.134C1332.02 846.865 1331.84 845.733 1331.49 844.739C1331.15 843.744 1330.64 842.958 1329.97 842.381C1329.3 841.803 1328.46 841.514 1327.46 841.514C1326.44 841.514 1325.59 841.803 1324.9 842.381C1324.22 842.958 1323.7 843.744 1323.35 844.739C1323.01 845.733 1322.84 846.865 1322.84 848.134C1322.84 849.402 1323.01 850.534 1323.35 851.528C1323.7 852.523 1324.22 853.309 1324.9 853.886C1325.59 854.455 1326.44 854.739 1327.46 854.739ZM1356.09 849.71V837.182H1362.14V859H1356.34V855.037H1356.11C1355.62 856.315 1354.8 857.343 1353.65 858.119C1352.51 858.896 1351.13 859.284 1349.49 859.284C1348.03 859.284 1346.75 858.953 1345.64 858.29C1344.53 857.627 1343.66 856.685 1343.04 855.463C1342.42 854.241 1342.11 852.778 1342.1 851.074V837.182H1348.15V849.994C1348.16 851.282 1348.51 852.3 1349.19 853.048C1349.87 853.796 1350.79 854.17 1351.93 854.17C1352.66 854.17 1353.34 854.005 1353.98 853.673C1354.61 853.332 1355.12 852.83 1355.51 852.168C1355.91 851.505 1356.1 850.686 1356.09 849.71ZM1366.99 859V837.182H1372.85V840.989H1373.08C1373.48 839.634 1374.14 838.612 1375.08 837.92C1376.02 837.22 1377.1 836.869 1378.32 836.869C1378.62 836.869 1378.95 836.888 1379.3 836.926C1379.65 836.964 1379.96 837.016 1380.22 837.082V842.452C1379.94 842.366 1379.55 842.291 1379.04 842.224C1378.54 842.158 1378.08 842.125 1377.67 842.125C1376.78 842.125 1375.98 842.319 1375.28 842.707C1374.59 843.086 1374.04 843.616 1373.63 844.298C1373.24 844.98 1373.04 845.766 1373.04 846.656V859H1366.99ZM1401.51 843.403L1395.97 843.744C1395.87 843.271 1395.67 842.845 1395.36 842.466C1395.04 842.078 1394.63 841.77 1394.12 841.543C1393.62 841.306 1393.02 841.188 1392.32 841.188C1391.38 841.188 1390.59 841.386 1389.94 841.784C1389.3 842.172 1388.98 842.693 1388.98 843.347C1388.98 843.867 1389.19 844.308 1389.6 844.668C1390.02 845.027 1390.73 845.316 1391.75 845.534L1395.7 846.33C1397.82 846.765 1399.4 847.466 1400.44 848.432C1401.48 849.398 1402 850.667 1402 852.239C1402 853.669 1401.58 854.923 1400.74 856.003C1399.91 857.082 1398.76 857.925 1397.3 858.531C1395.85 859.128 1394.18 859.426 1392.29 859.426C1389.4 859.426 1387.1 858.825 1385.38 857.622C1383.68 856.41 1382.68 854.762 1382.39 852.679L1388.34 852.366C1388.52 853.247 1388.95 853.92 1389.64 854.384C1390.34 854.838 1391.22 855.065 1392.3 855.065C1393.36 855.065 1394.21 854.862 1394.86 854.455C1395.51 854.038 1395.84 853.503 1395.85 852.849C1395.84 852.3 1395.61 851.85 1395.16 851.5C1394.7 851.14 1394 850.866 1393.05 850.676L1389.28 849.923C1387.14 849.497 1385.56 848.759 1384.52 847.707C1383.48 846.656 1382.97 845.316 1382.97 843.688C1382.97 842.286 1383.35 841.079 1384.11 840.065C1384.87 839.052 1385.95 838.271 1387.33 837.722C1388.72 837.172 1390.35 836.898 1392.22 836.898C1394.97 836.898 1397.14 837.48 1398.72 838.645C1400.31 839.81 1401.24 841.396 1401.51 843.403ZM1415.76 859.426C1413.51 859.426 1411.58 858.972 1409.96 858.062C1408.35 857.144 1407.11 855.847 1406.24 854.17C1405.37 852.485 1404.93 850.491 1404.93 848.19C1404.93 845.946 1405.37 843.976 1406.24 842.281C1407.11 840.586 1408.34 839.265 1409.92 838.318C1411.51 837.371 1413.37 836.898 1415.51 836.898C1416.95 836.898 1418.29 837.13 1419.53 837.594C1420.78 838.048 1421.87 838.735 1422.8 839.653C1423.74 840.572 1424.47 841.727 1424.99 843.119C1425.51 844.502 1425.77 846.121 1425.77 847.977V849.639H1407.35V845.889H1420.07C1420.07 845.018 1419.89 844.246 1419.51 843.574C1419.13 842.902 1418.6 842.376 1417.93 841.997C1417.27 841.609 1416.5 841.415 1415.61 841.415C1414.7 841.415 1413.88 841.628 1413.17 842.054C1412.47 842.471 1411.92 843.034 1411.52 843.744C1411.13 844.445 1410.92 845.226 1410.91 846.088V849.653C1410.91 850.733 1411.11 851.666 1411.51 852.452C1411.92 853.238 1412.49 853.844 1413.23 854.27C1413.97 854.696 1414.84 854.909 1415.86 854.909C1416.53 854.909 1417.14 854.814 1417.7 854.625C1418.26 854.436 1418.74 854.152 1419.14 853.773C1419.53 853.394 1419.84 852.93 1420.05 852.381L1425.64 852.75C1425.36 854.095 1424.78 855.269 1423.9 856.273C1423.02 857.267 1421.9 858.044 1420.51 858.602C1419.14 859.152 1417.56 859.426 1415.76 859.426ZM1464.76 840.094H1458.54C1458.42 839.289 1458.19 838.574 1457.84 837.949C1457.49 837.314 1457.04 836.775 1456.49 836.33C1455.94 835.884 1455.31 835.544 1454.59 835.307C1453.88 835.07 1453.11 834.952 1452.27 834.952C1450.77 834.952 1449.46 835.326 1448.34 836.074C1447.22 836.812 1446.35 837.892 1445.74 839.312C1445.12 840.723 1444.82 842.437 1444.82 844.455C1444.82 846.528 1445.12 848.271 1445.74 849.682C1446.36 851.093 1447.23 852.158 1448.35 852.878C1449.47 853.598 1450.76 853.957 1452.23 853.957C1453.05 853.957 1453.82 853.848 1454.52 853.631C1455.23 853.413 1455.86 853.096 1456.41 852.679C1456.96 852.253 1457.41 851.737 1457.77 851.131C1458.14 850.525 1458.39 849.833 1458.54 849.057L1464.76 849.085C1464.6 850.42 1464.2 851.708 1463.55 852.949C1462.92 854.18 1462.06 855.283 1460.98 856.259C1459.91 857.224 1458.63 857.991 1457.14 858.56C1455.67 859.118 1454 859.398 1452.13 859.398C1449.54 859.398 1447.22 858.811 1445.17 857.636C1443.13 856.462 1441.52 854.762 1440.34 852.537C1439.17 850.312 1438.58 847.617 1438.58 844.455C1438.58 841.282 1439.18 838.583 1440.37 836.358C1441.56 834.133 1443.18 832.437 1445.23 831.273C1447.27 830.098 1449.57 829.511 1452.13 829.511C1453.82 829.511 1455.38 829.748 1456.82 830.222C1458.27 830.695 1459.55 831.386 1460.67 832.295C1461.79 833.195 1462.69 834.298 1463.39 835.605C1464.11 836.912 1464.56 838.408 1464.76 840.094ZM1483.05 849.71V837.182H1489.1V859H1483.29V855.037H1483.06C1482.57 856.315 1481.75 857.343 1480.6 858.119C1479.47 858.896 1478.08 859.284 1476.44 859.284C1474.98 859.284 1473.7 858.953 1472.59 858.29C1471.48 857.627 1470.62 856.685 1469.99 855.463C1469.38 854.241 1469.06 852.778 1469.06 851.074V837.182H1475.11V849.994C1475.12 851.282 1475.46 852.3 1476.14 853.048C1476.83 853.796 1477.74 854.17 1478.88 854.17C1479.61 854.17 1480.3 854.005 1480.93 853.673C1481.56 853.332 1482.08 852.83 1482.46 852.168C1482.86 851.505 1483.06 850.686 1483.05 849.71ZM1494.05 859V829.909H1500.1V840.847H1500.29C1500.55 840.259 1500.94 839.663 1501.44 839.057C1501.95 838.441 1502.61 837.93 1503.43 837.523C1504.25 837.106 1505.27 836.898 1506.5 836.898C1508.09 836.898 1509.55 837.314 1510.9 838.148C1512.24 838.972 1513.32 840.217 1514.12 841.884C1514.93 843.541 1515.33 845.619 1515.33 848.119C1515.33 850.553 1514.94 852.608 1514.15 854.284C1513.37 855.951 1512.31 857.215 1510.97 858.077C1509.63 858.929 1508.14 859.355 1506.48 859.355C1505.31 859.355 1504.31 859.161 1503.48 858.773C1502.67 858.384 1502 857.897 1501.48 857.31C1500.96 856.713 1500.56 856.112 1500.29 855.506H1500.02V859H1494.05ZM1499.98 848.091C1499.98 849.388 1500.16 850.52 1500.51 851.486C1500.87 852.452 1501.4 853.205 1502.08 853.744C1502.76 854.275 1503.59 854.54 1504.56 854.54C1505.55 854.54 1506.38 854.27 1507.06 853.73C1507.75 853.181 1508.26 852.423 1508.61 851.457C1508.97 850.482 1509.15 849.36 1509.15 848.091C1509.15 846.831 1508.98 845.723 1508.63 844.767C1508.28 843.811 1507.76 843.062 1507.08 842.523C1506.4 841.983 1505.56 841.713 1504.56 841.713C1503.58 841.713 1502.75 841.973 1502.06 842.494C1501.39 843.015 1500.87 843.754 1500.51 844.71C1500.16 845.667 1499.98 846.794 1499.98 848.091ZM1529.31 859.426C1527.07 859.426 1525.13 858.972 1523.52 858.062C1521.91 857.144 1520.67 855.847 1519.79 854.17C1518.92 852.485 1518.49 850.491 1518.49 848.19C1518.49 845.946 1518.92 843.976 1519.79 842.281C1520.67 840.586 1521.89 839.265 1523.47 838.318C1525.06 837.371 1526.93 836.898 1529.07 836.898C1530.51 836.898 1531.85 837.13 1533.09 837.594C1534.34 838.048 1535.43 838.735 1536.36 839.653C1537.29 840.572 1538.02 841.727 1538.54 843.119C1539.06 844.502 1539.33 846.121 1539.33 847.977V849.639H1520.9V845.889H1533.63C1533.63 845.018 1533.44 844.246 1533.06 843.574C1532.68 842.902 1532.16 842.376 1531.48 841.997C1530.82 841.609 1530.05 841.415 1529.17 841.415C1528.25 841.415 1527.44 841.628 1526.73 842.054C1526.03 842.471 1525.48 843.034 1525.08 843.744C1524.68 844.445 1524.48 845.226 1524.47 846.088V849.653C1524.47 850.733 1524.67 851.666 1525.06 852.452C1525.47 853.238 1526.04 853.844 1526.78 854.27C1527.52 854.696 1528.4 854.909 1529.41 854.909C1530.08 854.909 1530.7 854.814 1531.26 854.625C1531.82 854.436 1532.29 854.152 1532.69 853.773C1533.09 853.394 1533.39 852.93 1533.6 852.381L1539.2 852.75C1538.91 854.095 1538.33 855.269 1537.45 856.273C1536.58 857.267 1535.45 858.044 1534.07 858.602C1532.7 859.152 1531.11 859.426 1529.31 859.426ZM1561.43 843.403L1555.89 843.744C1555.79 843.271 1555.59 842.845 1555.28 842.466C1554.96 842.078 1554.55 841.77 1554.04 841.543C1553.54 841.306 1552.94 841.188 1552.24 841.188C1551.3 841.188 1550.51 841.386 1549.87 841.784C1549.22 842.172 1548.9 842.693 1548.9 843.347C1548.9 843.867 1549.11 844.308 1549.52 844.668C1549.94 845.027 1550.66 845.316 1551.67 845.534L1555.62 846.33C1557.74 846.765 1559.32 847.466 1560.36 848.432C1561.4 849.398 1561.92 850.667 1561.92 852.239C1561.92 853.669 1561.5 854.923 1560.66 856.003C1559.83 857.082 1558.68 857.925 1557.22 858.531C1555.77 859.128 1554.1 859.426 1552.21 859.426C1549.32 859.426 1547.02 858.825 1545.31 857.622C1543.6 856.41 1542.6 854.762 1542.31 852.679L1548.26 852.366C1548.44 853.247 1548.88 853.92 1549.57 854.384C1550.26 854.838 1551.14 855.065 1552.22 855.065C1553.28 855.065 1554.14 854.862 1554.78 854.455C1555.43 854.038 1555.76 853.503 1555.77 852.849C1555.76 852.3 1555.53 851.85 1555.08 851.5C1554.62 851.14 1553.92 850.866 1552.98 850.676L1549.2 849.923C1547.07 849.497 1545.48 848.759 1544.44 847.707C1543.41 846.656 1542.89 845.316 1542.89 843.688C1542.89 842.286 1543.27 841.079 1544.03 840.065C1544.79 839.052 1545.87 838.271 1547.25 837.722C1548.64 837.172 1550.27 836.898 1552.14 836.898C1554.89 836.898 1557.06 837.48 1558.64 838.645C1560.23 839.81 1561.16 841.396 1561.43 843.403Z" fill="white"/>
</g>
</g>
<defs>
<filter id="filter0_d_27_26" x="1009.7" y="829.511" width="556.229" height="45.6705" filterUnits="userSpaceOnUse" color-interpolation-filters="sRGB">
<feFlood flood-opacity="0" result="BackgroundImageFix"/>
<feColorMatrix in="SourceAlpha" type="matrix" values="0 0 0 0 0 0 0 0 0 0 0 0 0 0 0 0 0 0 127 0" result="hardAlpha"/>
<feOffset dy="4"/>
<feGaussianBlur stdDeviation="2"/>
<feComposite in2="hardAlpha" operator="out"/>
<feColorMatrix type="matrix" values="0 0 0 0 0 0 0 0 0 0 0 0 0 0 0 0 0 0 0.25 0"/>
<feBlend mode="normal" in2="BackgroundImageFix" result="effect1_dropShadow_27_26"/>
<feBlend mode="normal" in="SourceGraphic" in2="effect1_dropShadow_27_26" result="shape"/>
</filter>
<clipPath id="clip0_27_26">
<rect width="1600" height="900" fill="white"/>
</clipPath>
</defs>
</svg>
